# Blender 4.0.2
# www.blender.org
mtllib poorlytexturedcube.mtl
o Cube
v 1.000000 1.000000 -1.000000
v 1.000000 -1.000000 -1.000000
v 1.000000 1.000000 1.000000
v 1.000000 -1.000000 1.000000
v -1.000000 1.000000 -1.000000
v -1.000000 -1.000000 -1.000000
v -1.000000 1.000000 1.000000
v -1.000000 -1.000000 1.000000
vn -0.0000 1.0000 -0.0000
vn -0.0000 -0.0000 1.0000
vn -1.0000 -0.0000 -0.0000
vn -0.0000 -1.0000 -0.0000
vn 1.0000 -0.0000 -0.0000
vn -0.0000 -0.0000 -1.0000
vt 1.001083 0.002240
vt -0.001902 0.997350
vt -0.001902 0.002240
vt 0.003308 -0.000659
vt 0.996692 0.994706
vt 0.002318 0.993716
vt 0.999309 0.997877
vt 0.000691 0.000201
vt 0.998769 -0.000339
vt 0.997086 0.003906
vt 0.003733 0.997259
vt 0.003733 0.003906
vt 0.003330 0.005088
vt 0.996670 0.999227
vt 0.002930 0.998828
vt -0.002137 0.005276
vt 1.002137 0.996708
vt 0.004284 1.003129
vt 1.001083 0.997350
vt 0.997683 0.000332
vt 0.001231 0.998417
vt 0.997086 0.997259
vt 0.997070 0.005487
vt 0.995716 -0.001145
s 0
usemtl Material
f 5/1/1 3/2/1 1/3/1
f 3/4/2 8/5/2 4/6/2
f 7/7/3 6/8/3 8/9/3
f 2/10/4 8/11/4 6/12/4
f 1/13/5 4/14/5 2/15/5
f 5/16/6 2/17/6 6/18/6
f 5/1/1 7/19/1 3/2/1
f 3/4/2 7/20/2 8/5/2
f 7/7/3 5/21/3 6/8/3
f 2/10/4 4/22/4 8/11/4
f 1/13/5 3/23/5 4/14/5
f 5/16/6 1/24/6 2/17/6
