# Blender 4.0.2
# www.blender.org
mtllib psx_sword.mtl
o Sword
v 0.013198 -0.135278 -0.027782
v 0.007087 0.100602 -0.015349
v 0.007398 0.125874 -0.015349
v 0.007087 -0.088948 -0.015349
v 0.085522 0.100602 -0.007318
v 0.091263 0.112400 -0.007318
v 0.012976 0.125874 -0.008602
v -0.013198 -0.135278 -0.027782
v -0.007087 0.100602 -0.015349
v 0.000000 -0.135278 -0.027782
v 0.000000 0.100602 -0.015349
v 0.000000 0.125874 -0.015349
v -0.007398 0.125874 -0.015349
v 0.000000 0.882157 -0.013100
v 0.000000 -0.088948 -0.015349
v -0.007087 -0.088948 -0.015349
v -0.085522 0.100602 -0.007318
v -0.091263 0.112400 -0.007318
v -0.012976 0.125874 -0.008602
v 0.013198 -0.135278 0.027782
v 0.007087 0.100602 0.015349
v 0.007398 0.125874 0.015349
v 0.007087 -0.088948 0.015349
v 0.085522 0.100602 0.007318
v 0.091263 0.112400 0.007318
v 0.012976 0.125874 0.008602
v 0.028190 -0.135278 0.000000
v 0.016936 0.100602 0.000000
v 0.018763 0.125874 0.000000
v 0.018763 0.882157 0.000000
v 0.016936 -0.088948 0.000000
v 0.093134 0.099121 0.000000
v 0.106117 0.120461 0.000000
v 0.030339 0.159688 0.000000
v 0.030339 0.806194 0.000000
v 0.101652 0.126676 0.000000
v 0.089331 0.117156 0.000000
v -0.013198 -0.135278 0.027782
v -0.007087 0.100602 0.015349
v 0.000000 -0.135278 0.027782
v 0.000000 0.100602 0.015349
v 0.000000 0.125874 0.015349
v -0.007398 0.125874 0.015349
v 0.000000 0.882157 0.013100
v 0.000000 -0.088948 0.015349
v -0.007087 -0.088948 0.015349
v -0.085522 0.100602 0.007318
v -0.091263 0.112400 0.007318
v -0.012976 0.125874 0.008602
v -0.028190 -0.135278 0.000000
v 0.000000 -0.141489 0.000000
v -0.016936 0.100602 0.000000
v -0.018763 0.125874 0.000000
v 0.000000 0.954790 0.000000
v -0.018763 0.882157 0.000000
v -0.016936 -0.088948 0.000000
v -0.093134 0.099121 0.000000
v -0.106117 0.120461 0.000000
v -0.030339 0.159688 0.000000
v -0.030339 0.806194 0.000000
v -0.101652 0.126676 0.000000
v -0.089331 0.117156 0.000000
vn 0.0558 -0.9973 -0.0471
vn 0.0981 -0.9801 -0.1725
vn 0.5249 -0.8461 0.0924
vn -0.0000 0.2592 -0.9658
vn 0.7707 0.0094 -0.6372
vn -0.0175 -0.9863 -0.1643
vn -0.2475 -0.8614 0.4435
vn -0.0000 -1.0000 -0.0000
vn 0.9748 -0.0369 -0.2199
vn 0.8363 0.2137 -0.5049
vn 0.8201 0.5621 -0.1072
vn -0.0000 -0.0000 -1.0000
vn -0.0000 0.0015 -1.0000
vn 0.0312 0.9907 -0.1326
vn 0.8906 -0.4176 -0.1803
vn 0.5663 0.1463 -0.8111
vn -0.0000 0.0030 -1.0000
vn 0.9155 -0.3775 -0.1389
vn 0.8416 -0.0000 -0.5401
vn 0.9179 0.3655 -0.1546
vn 0.6057 -0.7228 -0.3327
vn 0.5800 -0.3290 -0.7452
vn 0.8882 0.4060 -0.2152
vn 0.0905 -0.0366 -0.9952
vn 0.1004 -0.0057 -0.9949
vn 0.0884 -0.0430 -0.9952
vn 0.4401 0.0001 -0.8979
vn 0.9815 0.1830 -0.0568
vn 0.9726 -0.2252 -0.0583
vn 0.6525 -0.7439 0.1447
vn 0.2549 -0.9516 -0.1715
vn 0.7260 0.6683 -0.1624
vn 0.5703 0.0869 -0.8168
vn 0.7446 0.6543 -0.1322
vn 0.4874 -0.8228 -0.2921
vn 0.3249 0.2334 -0.9165
vn 0.1073 0.9831 -0.1481
vn 0.9639 -0.0927 -0.2498
vn -0.5066 0.6557 -0.5599
vn -0.8232 0.5399 -0.1756
vn -0.0351 0.9347 -0.3536
vn -0.2026 0.8122 0.5471
vn 0.1150 0.8746 -0.4710
vn 0.1691 0.9776 -0.1252
vn -0.0981 -0.9801 -0.1725
vn -0.0558 -0.9973 -0.0471
vn -0.5249 -0.8461 0.0923
vn -0.7707 0.0094 -0.6372
vn 0.2475 -0.8614 0.4436
vn 0.0175 -0.9863 -0.1643
vn -0.8363 0.2137 -0.5049
vn -0.9749 -0.0369 -0.2198
vn -0.8201 0.5621 -0.1073
vn -0.0311 0.9907 -0.1327
vn -0.5663 0.1463 -0.8111
vn -0.8906 -0.4175 -0.1803
vn -0.8416 -0.0000 -0.5401
vn -0.9155 -0.3775 -0.1389
vn -0.9178 0.3656 -0.1547
vn -0.6057 -0.7228 -0.3327
vn -0.5800 -0.3290 -0.7452
vn -0.6283 -0.3057 -0.7154
vn -0.1004 -0.0057 -0.9949
vn -0.0905 -0.0366 -0.9952
vn -0.0884 -0.0430 -0.9952
vn -0.9814 0.1831 -0.0568
vn -0.4401 0.0001 -0.8979
vn -0.9726 -0.2251 -0.0583
vn -0.6525 -0.7438 0.1447
vn -0.2549 -0.9516 -0.1715
vn -0.5703 0.0869 -0.8168
vn -0.4876 -0.8228 -0.2920
vn -0.7445 0.6544 -0.1323
vn -0.3249 0.2334 -0.9165
vn -0.9639 -0.0926 -0.2498
vn -0.1071 0.9832 -0.1481
vn 0.5066 0.6557 -0.5599
vn 0.0351 0.9348 -0.3535
vn 0.8232 0.5398 -0.1757
vn -0.1150 0.8746 -0.4710
vn 0.2027 0.8122 0.5471
vn -0.1691 0.9776 -0.1252
vn 0.0981 -0.9801 0.1725
vn 0.0558 -0.9973 0.0471
vn 0.5249 -0.8461 -0.0923
vn -0.0000 0.2592 0.9658
vn 0.7707 0.0094 0.6372
vn -0.2475 -0.8614 -0.4436
vn -0.0175 -0.9863 0.1643
vn 0.8363 0.2137 0.5049
vn 0.9749 -0.0369 0.2198
vn 0.8201 0.5621 0.1073
vn -0.0000 -0.0000 1.0000
vn -0.0000 0.0015 1.0000
vn 0.0311 0.9907 0.1327
vn 0.5663 0.1463 0.8111
vn 0.8906 -0.4175 0.1803
vn -0.0000 0.0030 1.0000
vn 0.8416 -0.0000 0.5401
vn 0.9155 -0.3775 0.1389
vn 0.9178 0.3656 0.1547
vn 0.6057 -0.7228 0.3327
vn 0.5800 -0.3290 0.7452
vn 0.6283 -0.3057 0.7154
vn 0.1004 -0.0057 0.9949
vn 0.0905 -0.0366 0.9952
vn 0.0884 -0.0430 0.9952
vn 0.9814 0.1831 0.0568
vn 0.4401 0.0001 0.8979
vn 0.9726 -0.2251 0.0583
vn 0.6525 -0.7438 -0.1447
vn 0.2549 -0.9516 0.1715
vn 0.5703 0.0869 0.8168
vn 0.4876 -0.8228 0.2920
vn 0.7445 0.6544 0.1323
vn 0.3249 0.2334 0.9165
vn 0.9639 -0.0926 0.2498
vn 0.1071 0.9832 0.1481
vn -0.5066 0.6557 0.5599
vn -0.0351 0.9348 0.3535
vn -0.8232 0.5398 0.1757
vn 0.1150 0.8746 0.4710
vn -0.2027 0.8122 -0.5471
vn 0.1691 0.9776 0.1252
vn -0.0558 -0.9973 0.0471
vn -0.0981 -0.9801 0.1725
vn -0.5249 -0.8461 -0.0924
vn -0.7707 0.0094 0.6372
vn 0.0175 -0.9863 0.1643
vn 0.2475 -0.8614 -0.4435
vn -0.9748 -0.0369 0.2199
vn -0.8363 0.2137 0.5049
vn -0.8201 0.5621 0.1072
vn -0.0312 0.9907 0.1326
vn -0.8906 -0.4176 0.1803
vn -0.5663 0.1463 0.8111
vn -0.9155 -0.3775 0.1389
vn -0.8416 -0.0000 0.5401
vn -0.9179 0.3655 0.1546
vn -0.6057 -0.7228 0.3327
vn -0.5800 -0.3290 0.7452
vn -0.8882 0.4060 0.2152
vn -0.0905 -0.0366 0.9952
vn -0.1004 -0.0057 0.9949
vn -0.0884 -0.0430 0.9952
vn -0.4401 0.0001 0.8979
vn -0.9815 0.1830 0.0568
vn -0.9726 -0.2252 0.0583
vn -0.6525 -0.7439 -0.1447
vn -0.2549 -0.9516 0.1715
vn -0.7260 0.6683 0.1624
vn -0.5703 0.0869 0.8168
vn -0.7446 0.6543 0.1322
vn -0.4874 -0.8228 0.2921
vn -0.3249 0.2334 0.9165
vn -0.1073 0.9831 0.1481
vn -0.9639 -0.0927 0.2498
vn 0.5066 0.6557 0.5599
vn 0.8232 0.5399 0.1756
vn 0.0351 0.9347 0.3536
vn 0.2026 0.8122 -0.5471
vn -0.1150 0.8746 0.4710
vn -0.1691 0.9776 0.1252
vn -0.0000 -0.9759 -0.2182
vn 0.4951 -0.8671 0.0555
vn 0.8551 0.2366 -0.4614
vn 0.6283 -0.3057 -0.7154
vn 0.1019 -0.0013 -0.9948
vn 0.3994 0.0014 -0.9168
vn 0.4105 0.9043 -0.1171
vn -0.4952 -0.8670 0.0554
vn -0.8551 0.2366 -0.4614
vn -0.8881 0.4061 -0.2153
vn -0.1019 -0.0013 -0.9948
vn -0.3994 0.0014 -0.9168
vn -0.7259 0.6683 -0.1625
vn -0.4105 0.9043 -0.1171
vn -0.0000 -0.9759 0.2182
vn 0.4952 -0.8670 -0.0554
vn 0.8551 0.2366 0.4614
vn 0.8881 0.4061 0.2153
vn 0.1019 -0.0013 0.9948
vn 0.3994 0.0014 0.9168
vn 0.7259 0.6683 0.1625
vn 0.4105 0.9043 0.1171
vn -0.4951 -0.8671 -0.0555
vn -0.8551 0.2366 0.4614
vn -0.6283 -0.3057 0.7154
vn -0.1019 -0.0013 0.9948
vn -0.3994 0.0014 0.9168
vn -0.4105 0.9043 0.1171
vt 0.496523 0.892147
vt 0.524653 0.832931
vt 0.556609 0.892147
vt 0.516045 0.833037
vt 0.495626 0.966518
vt 0.495626 0.833037
vt 0.516941 0.214107
vt 0.495626 0.048867
vt 0.533010 0.214107
vt 0.718498 0.238594
vt 0.574833 0.253922
vt 0.554202 0.221771
vt 0.576846 0.966518
vt 0.544422 0.833037
vt 0.516045 0.286919
vt 0.495626 0.214107
vt 0.581563 0.070330
vt 0.549685 0.130898
vt 0.495626 0.130898
vt 0.544422 0.286919
vt 0.495626 0.286919
vt 0.763956 0.291184
vt 0.758566 0.252927
vt 0.801361 0.229703
vt 0.742024 0.286919
vt 0.583035 0.084801
vt 0.583035 0.116683
vt 0.549685 0.214107
vt 0.583035 0.207848
vt 0.648917 0.270331
vt 0.674208 0.252517
vt 0.685077 0.252517
vt 0.644215 0.252517
vt 0.472425 0.252517
vt 0.444759 0.289882
vt 0.533650 0.966518
vt 0.496523 0.832931
vt 0.734443 0.253922
s 1
usemtl Material.001
f 51/1/1 1/2/2 27/3/3
f 4/4/4 10/5/4 15/6/4
f 3/7/5 14/8/5 7/9/5
f 5/10/6 28/11/7 2/12/8
f 27/13/9 4/4/10 31/14/11
f 2/15/12 12/16/13 3/7/13
f 54/17/14 30/18/15 14/19/16
f 3/7/13 12/16/13 14/8/17
f 31/14/18 2/15/19 28/20/20
f 4/4/12 11/21/12 2/15/12
f 32/22/21 6/23/22 33/24/23
f 5/25/24 3/7/25 6/23/26
f 7/9/27 35/26/28 34/27/29
f 29/28/30 7/9/31 34/27/32
f 14/19/33 30/18/34 35/29/35
f 6/30/36 36/31/37 33/32/38
f 6/30/39 37/33/40 36/31/41
f 29/34/42 6/30/43 3/35/44
f 8/2/45 51/1/46 50/3/47
f 16/4/4 10/5/4 8/36/4
f 13/7/48 19/9/48 14/8/48
f 52/11/49 17/10/50 9/12/8
f 16/4/51 50/13/52 56/14/53
f 9/15/12 12/16/13 11/21/12
f 54/17/54 14/19/55 55/18/56
f 13/7/13 14/8/17 12/16/13
f 9/15/57 56/14/58 52/20/59
f 11/21/12 16/4/12 9/15/12
f 57/22/60 18/23/61 17/25/62
f 13/7/63 17/25/64 18/23/65
f 60/26/66 19/9/67 59/27/68
f 53/28/69 19/9/70 13/7/8
f 14/19/71 60/29/72 55/18/73
f 18/30/74 58/32/75 61/31/76
f 18/30/77 61/31/78 62/33/79
f 18/30/80 53/34/81 13/35/82
f 20/2/83 51/1/84 27/3/85
f 23/4/86 40/5/86 20/36/86
f 22/7/87 26/9/87 44/8/87
f 28/11/88 24/10/89 21/12/8
f 23/4/90 27/13/91 31/14/92
f 21/15/93 42/16/94 41/21/93
f 54/17/95 44/19/96 30/18/97
f 22/7/94 44/8/98 42/16/94
f 21/15/99 31/14/100 28/20/101
f 41/21/93 23/4/93 21/15/93
f 32/22/102 25/23/103 24/25/104
f 22/7/105 24/25/106 25/23/107
f 35/26/108 26/9/109 34/27/110
f 29/28/111 26/9/112 22/7/8
f 44/19/113 35/29/114 30/18/115
f 25/30/116 33/32/117 36/31/118
f 25/30/119 36/31/120 37/33/121
f 25/30/122 29/34/123 22/35/124
f 51/1/125 38/2/126 50/3/127
f 46/4/86 40/5/86 45/6/86
f 43/7/128 44/8/128 49/9/128
f 47/10/129 52/11/130 39/12/8
f 50/13/131 46/4/132 56/14/133
f 39/15/93 42/16/94 43/7/94
f 54/17/134 55/18/135 44/19/136
f 43/7/94 42/16/94 44/8/98
f 56/14/137 39/15/138 52/20/139
f 46/4/93 41/21/93 39/15/93
f 57/22/140 48/23/141 58/24/142
f 47/25/143 43/7/144 48/23/145
f 49/9/146 60/26/147 59/27/148
f 53/28/149 49/9/150 59/27/151
f 44/19/152 55/18/153 60/29/154
f 48/30/155 61/31/156 58/32/157
f 48/30/158 62/33/159 61/31/160
f 53/34/161 48/30/162 43/35/163
f 51/1/1 10/37/164 1/2/2
f 4/4/4 1/36/4 10/5/4
f 5/10/6 32/38/165 28/11/7
f 27/13/9 1/36/166 4/4/10
f 2/15/12 11/21/12 12/16/13
f 31/14/18 4/4/19 2/15/19
f 4/4/12 15/6/12 11/21/12
f 32/22/21 5/25/167 6/23/22
f 5/25/24 2/15/168 3/7/25
f 7/9/27 14/8/169 35/26/28
f 29/28/30 3/7/8 7/9/31
f 29/34/42 37/33/170 6/30/43
f 8/2/45 10/37/164 51/1/46
f 16/4/4 15/6/4 10/5/4
f 52/11/49 57/38/171 17/10/50
f 16/4/51 8/36/172 50/13/52
f 9/15/12 13/7/13 12/16/13
f 9/15/57 16/4/57 56/14/58
f 11/21/12 15/6/12 16/4/12
f 57/22/60 58/24/173 18/23/61
f 13/7/63 9/15/174 17/25/64
f 60/26/66 14/8/175 19/9/67
f 53/28/69 59/27/176 19/9/70
f 18/30/80 62/33/177 53/34/81
f 20/2/83 40/37/178 51/1/84
f 23/4/86 45/6/86 40/5/86
f 28/11/88 32/38/179 24/10/89
f 23/4/90 20/36/180 27/13/91
f 21/15/93 22/7/94 42/16/94
f 21/15/99 23/4/99 31/14/100
f 41/21/93 45/6/93 23/4/93
f 32/22/102 33/24/181 25/23/103
f 22/7/105 21/15/182 24/25/106
f 35/26/108 44/8/183 26/9/109
f 29/28/111 34/27/184 26/9/112
f 25/30/122 37/33/185 29/34/123
f 51/1/125 40/37/178 38/2/126
f 46/4/86 38/36/86 40/5/86
f 47/10/129 57/38/186 52/11/130
f 50/13/131 38/36/187 46/4/132
f 39/15/93 41/21/93 42/16/94
f 56/14/137 46/4/138 39/15/138
f 46/4/93 45/6/93 41/21/93
f 57/22/140 47/25/188 48/23/141
f 47/25/143 39/15/189 43/7/144
f 49/9/146 44/8/190 60/26/147
f 53/28/149 43/7/8 49/9/150
f 53/34/161 62/33/191 48/30/162
