# Blender 4.0.1
# www.blender.org
mtllib psx_skull.mtl
o Skull
v 0.172811 0.888051 -0.264660
v 0.192080 0.826961 0.138050
v 0.187378 0.322643 0.150953
v 0.075647 0.209924 0.325894
v 0.247598 0.528244 -0.384935
v 0.235458 0.496324 0.171319
v 0.152366 0.624781 0.342260
v 0.204519 0.791558 -0.352395
v 0.256826 0.680570 0.134220
v 0.135301 0.727578 0.297657
v 0.184030 0.406299 -0.308185
v 0.279849 0.423575 0.162212
v 0.087221 0.370853 0.272267
v 0.211673 0.191217 0.028237
v 0.075011 0.045198 0.242688
v 0.280104 0.507505 0.003053
v 0.301472 0.721811 -0.000000
v 0.216536 0.348414 -0.033124
v 0.135328 0.305620 0.258910
v 0.222330 0.607319 0.285346
v 0.248459 0.640116 0.263514
v 0.146267 0.334051 0.245591
v 0.205733 0.897628 -0.000000
v 0.167127 0.102435 0.164845
v -0.172811 0.888051 -0.264660
v -0.192080 0.826961 0.138050
v -0.187378 0.322643 0.150953
v 0.000000 0.964481 -0.239503
v 0.000000 0.408939 0.125689
v 0.000000 0.907366 0.229480
v 0.000000 0.205939 0.325894
v -0.075647 0.209924 0.325894
v -0.247598 0.528244 -0.384935
v 0.000000 0.547615 0.363035
v -0.235458 0.496324 0.171319
v 0.000000 0.541931 -0.439243
v -0.152366 0.624781 0.342260
v 0.000000 0.731266 0.343701
v -0.204519 0.791558 -0.352395
v -0.256826 0.680570 0.134220
v 0.000000 0.772966 -0.400475
v -0.135301 0.727578 0.297657
v -0.184030 0.406299 -0.308185
v -0.279849 0.423575 0.162212
v 0.000000 0.391311 -0.338664
v -0.087221 0.370853 0.272267
v 0.000000 0.476976 0.385506
v 0.000000 0.020776 0.315444
v 0.000000 1.000472 0.001272
v -0.211673 0.191217 0.028237
v -0.075011 0.045198 0.242688
v -0.280104 0.507505 0.003053
v -0.301472 0.721811 -0.000000
v -0.216536 0.348414 -0.033124
v -0.135328 0.305620 0.258910
v -0.222330 0.607319 0.285346
v -0.248459 0.640116 0.263514
v -0.146267 0.334051 0.245591
v -0.205733 0.897628 -0.000000
v -0.167127 0.102435 0.164845
vn -0.0000 0.9096 -0.4156
vn 0.6735 0.7257 0.1405
vn 0.5529 0.7333 -0.3957
vn 0.5071 0.5065 0.6974
vn -0.0000 0.8006 0.5992
vn -0.0000 0.3871 0.9220
vn -0.0000 0.4041 -0.9147
vn 0.6084 0.4355 -0.6635
vn 0.8634 -0.1638 0.4773
vn 0.8869 -0.3666 0.2812
vn 0.7462 0.0474 0.6640
vn 0.9732 0.2091 0.0957
vn 0.6503 -0.2353 0.7223
vn -0.0000 -0.1153 0.9933
vn -0.0000 -0.0563 0.9984
vn 0.6917 -0.1232 0.7116
vn 0.4996 -0.0819 0.8624
vn 0.6955 -0.1511 0.7024
vn 0.9861 -0.1661 -0.0011
vn 0.8948 -0.1256 0.4285
vn 0.7380 -0.6716 -0.0654
vn -0.0000 -0.1976 -0.9803
vn 0.7013 -0.2311 -0.6744
vn -0.0000 -0.0825 0.9966
vn -0.0000 0.1290 0.9916
vn 0.4466 0.0601 0.8927
vn -0.0000 -0.8417 -0.5399
vn -0.0000 -0.9993 0.0379
vn 0.9286 0.1944 0.3160
vn 0.9074 0.0062 0.4202
vn 0.3809 -0.0854 0.9207
vn 0.9753 -0.0246 0.2195
vn 0.4773 -0.7622 -0.4374
vn 0.8497 0.2060 0.4855
vn -0.0000 0.9911 0.1334
vn 0.6827 0.5767 0.4486
vn -0.6735 0.7257 0.1405
vn -0.5529 0.7333 -0.3957
vn -0.5071 0.5065 0.6974
vn -0.6827 0.5767 0.4486
vn -0.8634 -0.1638 0.4773
vn -0.8869 -0.3666 0.2812
vn -0.9753 -0.0246 0.2195
vn -0.9732 0.2091 0.0957
vn -0.6503 -0.2353 0.7223
vn -0.4996 -0.0819 0.8624
vn -0.6917 -0.1232 0.7116
vn -0.6955 -0.1511 0.7024
vn -0.8948 -0.1256 0.4285
vn -0.9861 -0.1661 -0.0011
vn -0.7380 -0.6716 -0.0654
vn -0.6084 0.4355 -0.6635
vn -0.7013 -0.2311 -0.6744
vn -0.4466 0.0601 0.8927
vn -0.8497 0.2060 0.4855
vn -0.4773 -0.7622 -0.4374
vn -0.9286 0.1944 0.3160
vn -0.3809 -0.0854 0.9207
vn -0.7462 0.0474 0.6640
vn -0.9074 0.0062 0.4202
vt 0.573172 0.382425
vt 0.490362 0.359310
vt 0.581870 0.355999
vt 0.901496 0.310652
vt 0.850114 0.378928
vt 0.850114 0.312052
vt 0.141954 0.349093
vt 0.082411 0.388746
vt 0.071485 0.355499
vt 0.913582 0.073248
vt 0.921272 0.156874
vt 0.901506 0.150409
vt 0.581870 0.348616
vt 0.490362 0.291138
vt 0.612205 0.315253
vt 0.878600 0.051511
vt 0.850114 0.112554
vt 0.850114 0.042237
vt 0.934546 0.264982
vt 0.883237 0.175182
vt 0.905660 0.161206
vt 0.489306 0.217039
vt 0.434276 0.188020
vt 0.501814 0.162033
vt 0.141954 0.269488
vt 0.056642 0.264772
vt 0.850114 0.242309
vt 0.850114 0.215483
vt 0.907976 0.271614
vt 0.141954 0.217591
vt 0.067345 0.202811
vt 0.141954 0.223665
vt 0.443954 0.276878
vt 0.431127 0.213173
vt 0.878841 0.114067
vt 0.438168 0.153122
vt 0.480598 0.107680
vt 0.623456 0.224210
vt 0.596919 0.182047
vt 0.947646 0.292800
vt 0.944468 0.277437
vt 0.489922 0.394869
vt 0.442630 0.334876
vt 0.442630 0.327494
vt 0.490362 0.351928
vt 0.078545 0.222755
vt 0.420471 0.249165
vt 0.389621 0.297281
vt 0.382315 0.286306
vt 0.939531 0.222831
vt 0.956389 0.195204
vt 0.923058 0.348393
vt 0.141954 0.415081
vt 0.930499 0.106963
vt 0.432885 0.310817
vt 0.411017 0.362677
s 1
usemtl Skull.001
f 28/1/1 23/2/2 1/3/3
f 10/4/4 30/5/5 38/6/6
f 41/7/7 1/8/3 8/9/8
f 24/10/9 3/11/10 19/12/11
f 1/13/3 17/14/12 8/15/8
f 15/16/13 31/17/14 48/18/15
f 20/19/16 13/20/17 22/21/18
f 16/22/19 12/23/20 18/24/21
f 36/25/22 8/9/8 5/26/23
f 13/20/17 34/27/24 47/28/25
f 20/19/16 10/4/4 7/29/26
f 45/30/27 18/31/21 29/32/28
f 16/22/19 9/33/29 6/34/30
f 7/29/26 38/6/6 34/27/24
f 13/20/17 31/17/14 4/35/31
f 18/24/21 3/36/10 14/37/32
f 19/12/11 13/20/17 4/35/31
f 5/38/23 17/14/12 16/22/19
f 11/39/33 16/22/19 18/24/21
f 9/40/29 10/4/4 21/41/34
f 49/42/35 2/43/36 23/2/2
f 2/44/36 17/14/12 23/45/2
f 36/25/22 11/46/33 45/30/27
f 3/11/10 22/21/18 19/12/11
f 6/47/30 21/48/34 20/49/16
f 6/50/30 22/21/18 12/51/20
f 24/10/9 4/35/31 15/16/13
f 59/2/37 28/1/1 25/3/38
f 42/4/39 30/5/5 26/52/40
f 41/7/7 25/8/38 28/53/1
f 60/10/41 27/11/42 50/54/43
f 25/13/38 53/14/44 59/45/37
f 31/17/14 51/16/45 48/18/15
f 46/20/46 56/19/47 58/21/48
f 44/23/49 52/22/50 54/24/51
f 39/9/52 36/25/22 33/26/53
f 46/20/46 34/27/24 37/29/54
f 56/19/47 42/4/39 57/41/55
f 45/30/27 54/31/51 43/46/56
f 52/22/50 40/33/57 53/14/44
f 37/29/54 38/6/6 42/4/39
f 31/17/14 46/20/46 32/35/58
f 27/36/42 54/24/51 50/37/43
f 55/12/59 46/20/46 58/21/48
f 33/38/53 53/14/44 39/15/52
f 43/39/56 52/22/50 33/38/53
f 40/40/57 42/4/39 26/52/40
f 26/43/40 49/42/35 59/2/37
f 53/14/44 26/44/40 59/45/37
f 36/25/22 43/46/56 33/26/53
f 27/11/42 58/21/48 44/51/49
f 35/47/60 57/48/55 40/55/57
f 58/21/48 35/50/60 44/51/49
f 32/35/58 60/10/41 51/16/45
f 28/1/1 49/42/35 23/2/2
f 10/4/4 2/52/36 30/5/5
f 41/7/7 28/53/1 1/8/3
f 24/10/9 14/54/32 3/11/10
f 1/13/3 23/45/2 17/14/12
f 15/16/13 4/35/31 31/17/14
f 20/19/16 7/29/26 13/20/17
f 16/22/19 6/34/30 12/23/20
f 36/25/22 41/7/7 8/9/8
f 13/20/17 7/29/26 34/27/24
f 20/19/16 21/41/34 10/4/4
f 45/30/27 11/46/33 18/31/21
f 16/22/19 17/14/12 9/33/29
f 7/29/26 10/4/4 38/6/6
f 13/20/17 47/28/25 31/17/14
f 18/24/21 12/23/20 3/36/10
f 19/12/11 22/21/18 13/20/17
f 5/38/23 8/15/8 17/14/12
f 11/39/33 5/38/23 16/22/19
f 9/40/29 2/52/36 10/4/4
f 49/42/35 30/56/5 2/43/36
f 2/44/36 9/33/29 17/14/12
f 36/25/22 5/26/23 11/46/33
f 3/11/10 12/51/20 22/21/18
f 6/47/30 9/55/29 21/48/34
f 6/50/30 20/19/16 22/21/18
f 24/10/9 19/12/11 4/35/31
f 59/2/37 49/42/35 28/1/1
f 42/4/39 38/6/6 30/5/5
f 41/7/7 39/9/52 25/8/38
f 60/10/41 55/12/59 27/11/42
f 25/13/38 39/15/52 53/14/44
f 31/17/14 32/35/58 51/16/45
f 46/20/46 37/29/54 56/19/47
f 44/23/49 35/34/60 52/22/50
f 39/9/52 41/7/7 36/25/22
f 46/20/46 47/28/25 34/27/24
f 56/19/47 37/29/54 42/4/39
f 45/30/27 29/32/28 54/31/51
f 52/22/50 35/34/60 40/33/57
f 37/29/54 34/27/24 38/6/6
f 31/17/14 47/28/25 46/20/46
f 27/36/42 44/23/49 54/24/51
f 55/12/59 32/35/58 46/20/46
f 33/38/53 52/22/50 53/14/44
f 43/39/56 54/24/51 52/22/50
f 40/40/57 57/41/55 42/4/39
f 26/43/40 30/56/5 49/42/35
f 53/14/44 40/33/57 26/44/40
f 36/25/22 45/30/27 43/46/56
f 27/11/42 55/12/59 58/21/48
f 35/47/60 56/49/47 57/48/55
f 58/21/48 56/19/47 35/50/60
f 32/35/58 55/12/59 60/10/41
