# Blender 4.0.1
# www.blender.org
mtllib skull.mtl
o Skull
v 0.172811 0.888051 -0.264660
v 0.192080 0.826961 0.138050
v 0.187378 0.322643 0.150953
v 0.075647 0.209924 0.325894
v 0.247598 0.528244 -0.384935
v 0.235458 0.496324 0.171319
v 0.152366 0.624781 0.342260
v 0.204519 0.791558 -0.352395
v 0.256826 0.680570 0.134220
v 0.135301 0.727578 0.297657
v 0.184030 0.406299 -0.308185
v 0.279849 0.423575 0.162212
v 0.087221 0.370853 0.272267
v 0.211673 0.191217 0.028237
v 0.075011 0.045198 0.242688
v 0.280104 0.507505 0.003053
v 0.301472 0.721811 -0.000000
v 0.216536 0.348414 -0.033124
v 0.135328 0.305620 0.258910
v 0.222330 0.607319 0.285346
v 0.248459 0.640116 0.263514
v 0.146267 0.334051 0.245591
v 0.205733 0.897628 -0.000000
v 0.167127 0.102435 0.164845
v -0.172811 0.888051 -0.264660
v -0.192080 0.826961 0.138050
v -0.187378 0.322643 0.150953
v 0.000000 0.964481 -0.239503
v 0.000000 0.408939 0.125689
v 0.000000 0.907366 0.229480
v 0.000000 0.205939 0.325894
v -0.075647 0.209924 0.325894
v -0.247598 0.528244 -0.384935
v 0.000000 0.547615 0.363035
v -0.235458 0.496324 0.171319
v 0.000000 0.541931 -0.439243
v -0.152366 0.624781 0.342260
v 0.000000 0.731266 0.343701
v -0.204519 0.791558 -0.352395
v -0.256826 0.680570 0.134220
v 0.000000 0.772966 -0.400475
v -0.135301 0.727578 0.297657
v -0.184030 0.406299 -0.308185
v -0.279849 0.423575 0.162212
v 0.000000 0.391311 -0.338664
v -0.087221 0.370853 0.272267
v 0.000000 0.476976 0.385506
v 0.000000 0.020776 0.315444
v 0.000000 1.000472 0.001272
v -0.211673 0.191217 0.028237
v -0.075011 0.045198 0.242688
v -0.280104 0.507505 0.003053
v -0.301472 0.721811 -0.000000
v -0.216536 0.348414 -0.033124
v -0.135328 0.305620 0.258910
v -0.222330 0.607319 0.285346
v -0.248459 0.640116 0.263514
v -0.146267 0.334051 0.245591
v -0.205733 0.897628 -0.000000
v -0.167127 0.102435 0.164845
vn 0.5577 0.7281 -0.3986
vn -0.0000 0.9123 -0.4095
vn -0.0000 0.9892 0.1463
vn 0.6916 0.7118 0.1223
vn 0.4882 0.4579 0.7430
vn 0.6575 0.6041 0.4503
vn -0.0000 0.7885 0.6150
vn -0.0000 0.4312 0.9023
vn -0.0000 0.4015 -0.9159
vn 0.6386 0.3972 -0.6591
vn 0.8665 -0.1464 0.4772
vn 0.9528 -0.1895 0.2372
vn 0.9028 -0.3239 0.2830
vn 0.7446 -0.0336 0.6667
vn 0.9703 0.2279 0.0809
vn -0.0000 -0.2594 0.9658
vn 0.6316 -0.2290 0.7407
vn 0.6237 -0.1297 0.7708
vn -0.0000 -0.1544 0.9880
vn 0.6844 -0.2811 0.6728
vn 0.7447 -0.0296 0.6667
vn 0.4076 0.0623 0.9110
vn 0.5069 -0.0906 0.8572
vn 0.7385 -0.6731 -0.0404
vn 0.9921 -0.1255 -0.0084
vn 0.9392 -0.1290 0.3182
vn 0.9398 -0.2269 0.2557
vn 0.7083 -0.2140 -0.6727
vn -0.0000 -0.1993 -0.9799
vn -0.0000 -0.0714 0.9974
vn -0.0000 -0.1887 0.9820
vn 0.8839 0.1867 0.4288
vn -0.0000 -0.8600 -0.5102
vn 0.4274 -0.8041 -0.4133
vn -0.0000 -0.9988 -0.0487
vn 0.9261 0.1931 0.3241
vn -0.5577 0.7281 -0.3986
vn -0.6916 0.7118 0.1223
vn -0.4882 0.4579 0.7430
vn -0.6575 0.6041 0.4503
vn -0.6386 0.3972 -0.6591
vn -0.8665 -0.1464 0.4772
vn -0.7446 -0.0336 0.6667
vn -0.9028 -0.3239 0.2830
vn -0.9528 -0.1895 0.2372
vn -0.9703 0.2279 0.0809
vn -0.6237 -0.1297 0.7708
vn -0.6316 -0.2290 0.7407
vn -0.6844 -0.2811 0.6728
vn -0.5069 -0.0906 0.8572
vn -0.4076 0.0623 0.9110
vn -0.7447 -0.0296 0.6667
vn -0.7385 -0.6731 -0.0404
vn -0.9398 -0.2269 0.2557
vn -0.9392 -0.1290 0.3182
vn -0.9921 -0.1255 -0.0084
vn -0.7083 -0.2140 -0.6727
vn -0.8839 0.1867 0.4288
vn -0.4274 -0.8041 -0.4133
vn -0.9261 0.1931 0.3241
vt 0.581870 0.355999
vt 0.573172 0.382425
vt 0.489922 0.394869
vt 0.490362 0.359310
vt 0.901496 0.310652
vt 0.923058 0.348393
vt 0.850114 0.378928
vt 0.850114 0.312052
vt 0.141954 0.349093
vt 0.141954 0.415081
vt 0.082411 0.388746
vt 0.071485 0.355499
vt 0.913582 0.073248
vt 0.930499 0.106963
vt 0.921272 0.156874
vt 0.901506 0.150409
vt 0.581870 0.348616
vt 0.490362 0.351928
vt 0.490362 0.291138
vt 0.612205 0.315253
vt 0.850114 0.042237
vt 0.878600 0.051511
vt 0.878841 0.114067
vt 0.850114 0.112554
vt 0.905660 0.161206
vt 0.934546 0.264982
vt 0.907976 0.271614
vt 0.883237 0.175182
vt 0.501814 0.162033
vt 0.489306 0.217039
vt 0.431127 0.213173
vt 0.434276 0.188020
vt 0.056642 0.264772
vt 0.141954 0.269488
vt 0.850114 0.242309
vt 0.850114 0.215483
vt 0.944468 0.277437
vt 0.141954 0.217591
vt 0.078545 0.222755
vt 0.067345 0.202811
vt 0.141954 0.223665
vt 0.443954 0.276878
vt 0.480598 0.107680
vt 0.438168 0.153122
vt 0.623456 0.224210
vt 0.596919 0.182047
vt 0.947646 0.292800
vt 0.411017 0.362677
vt 0.442630 0.334876
vt 0.442630 0.327494
vt 0.956389 0.195204
vt 0.420471 0.249165
vt 0.432885 0.310817
vt 0.389621 0.297281
vt 0.382315 0.286306
vt 0.939531 0.222831
s 1
usemtl Skull
f 1/1/1 28/2/2 49/3/3 23/4/4
f 10/5/5 2/6/6 30/7/7 38/8/8
f 41/9/9 28/10/2 1/11/1 8/12/10
f 24/13/11 14/14/12 3/15/13 19/16/14
f 1/17/1 23/18/4 17/19/15 8/20/10
f 48/21/16 15/22/17 4/23/18 31/24/19
f 22/25/20 20/26/21 7/27/22 13/28/23
f 18/29/24 16/30/25 6/31/26 12/32/27
f 5/33/28 36/34/29 41/9/9 8/12/10
f 13/28/23 7/27/22 34/35/30 47/36/31
f 20/26/21 21/37/32 10/5/5 7/27/22
f 45/38/33 11/39/34 18/40/24 29/41/35
f 16/30/25 17/19/15 9/42/36 6/31/26
f 7/27/22 10/5/5 38/8/8 34/35/30
f 4/23/18 13/28/23 47/36/31 31/24/19
f 14/43/12 18/29/24 12/32/27 3/44/13
f 19/16/14 22/25/20 13/28/23 4/23/18
f 5/45/28 8/20/10 17/19/15 16/30/25
f 11/46/34 5/45/28 16/30/25 18/29/24
f 9/47/36 2/6/6 10/5/5 21/37/32
f 23/4/4 49/3/3 30/48/7 2/49/6
f 23/18/4 2/50/6 9/42/36 17/19/15
f 36/34/29 5/33/28 11/39/34 45/38/33
f 3/15/13 12/51/27 22/25/20 19/16/14
f 6/52/26 9/53/36 21/54/32 20/55/21
f 12/51/27 6/56/26 20/26/21 22/25/20
f 15/22/17 24/13/11 19/16/14 4/23/18
f 25/1/37 59/4/38 49/3/3 28/2/2
f 42/5/39 38/8/8 30/7/7 26/6/40
f 41/9/9 39/12/41 25/11/37 28/10/2
f 60/13/42 55/16/43 27/15/44 50/14/45
f 25/17/37 39/20/41 53/19/46 59/18/38
f 48/21/16 31/24/19 32/23/47 51/22/48
f 58/25/49 46/28/50 37/27/51 56/26/52
f 54/29/53 44/32/54 35/31/55 52/30/56
f 33/33/57 39/12/41 41/9/9 36/34/29
f 46/28/50 47/36/31 34/35/30 37/27/51
f 56/26/52 37/27/51 42/5/39 57/37/58
f 45/38/33 29/41/35 54/40/53 43/39/59
f 52/30/56 35/31/55 40/42/60 53/19/46
f 37/27/51 34/35/30 38/8/8 42/5/39
f 32/23/47 31/24/19 47/36/31 46/28/50
f 50/43/45 27/44/44 44/32/54 54/29/53
f 55/16/43 32/23/47 46/28/50 58/25/49
f 33/45/57 52/30/56 53/19/46 39/20/41
f 43/46/59 54/29/53 52/30/56 33/45/57
f 40/47/60 57/37/58 42/5/39 26/6/40
f 59/4/38 26/49/40 30/48/7 49/3/3
f 59/18/38 53/19/46 40/42/60 26/50/40
f 36/34/29 45/38/33 43/39/59 33/33/57
f 27/15/44 55/16/43 58/25/49 44/51/54
f 35/52/55 56/55/52 57/54/58 40/53/60
f 44/51/54 58/25/49 56/26/52 35/56/55
f 51/22/48 32/23/47 55/16/43 60/13/42
